{"title":"Behen Hogi Teri (2017) 1CD PDVDRip x264 MP3 Mafiaking M2Tv","magnet":"magnet:?xt=urn:btih:c3b69ebc24fc0da015e720f797ed6eae1b8b2791&dn=Behen+Hogi+Teri+%282017%29+1CD+PDVDRip+x264+MP3+Mafiaking+M2Tv&tr=udp%3A%2F%2Ftracker.leechers-paradise.org%3A6969&tr=udp%3A%2F%2Fzer0day.ch%3A1337&tr=udp%3A%2F%2Fopen.demonii.com%3A1337&tr=udp%3A%2F%2Ftracker.coppersurfer.tk%3A6969&tr=udp%3A%2F%2Fexodus.desync.com%3A6969","uploader":"mafiaaking","categoryP":"video","categoryS":"movies","size":"743706127","seeders":"0","leechers":"0","description":"Behen Hogi Teri (2017) - 1CD - PreDVD-Rip - Hindi - x264 - MP3 - Mafiaking - M2Tv\r\n\r\nIMDB=http://www.imdb.com/title/tt6537508/\r\n\r\nRatings: 6.2/10\r\n\r\nGenere:      Comedy\r\n\r\nGeneral\r\nComplete name                            : Behen Hogi Teri (2017) - 1CD - PreDVD-Rip - Hindi - x264 - MP3 - Mafiaking - M2Tv.mkv\r\nFormat                                   : Matroska\r\nFile size                                : 703 MiB\r\nDuration                                 : 2 h 2 min\r\nOverall bit rate                         : 803 kb/s\r\nMovie name                               : Behen Hogi Teri (2017) - 1CD - PreDVD-Rip - Hindi - x264 - MP3 - Mafiaking - M2Tv\r\n\r\nVideo\r\nID                                       : 1\r\nFormat                                   : AVC\r\nCodec ID                                 : V_MPEG4/ISO/AVC\r\nDuration                                 : 2 h 2 min\r\nBit rate                                 : 721 kb/s\r\nWidth                                    : 640 pixels\r\nHeight                                   : 272 pixels\r\nFrame rate                               : 25.000 FPS\r\nStream size                              : 631 MiB (90%)\r\nTitle                                    : Mafiaking\r\nLanguage                                 : Hindi\r\n\r\nAudio\r\nID                                       : 2\r\nFormat                                   : MPEG Audio\r\nCodec ID/Hint                            : MP3\r\nDuration                                 : 2 h 2 min\r\nBit rate                                 : 80.0 kb/s\r\nChannel(s)                               : 2 channels\r\nStream size                              : 70.0 MiB (10%)\r\nTitle                                    : Mafiaking\r\nLanguage                                 : Hindi\r\n\r\nScreens:-\r\n <a href=\"\nhttps://www.lookimg.com/image/zWAuW\" rel=\"nofollow\" target=\"_NEW\">\nhttps://www.lookimg.com/image/zWAuW</a> <a href=\"\nhttps://www.lookimg.com/image/zWBDh\" rel=\"nofollow\" target=\"_NEW\">\nhttps://www.lookimg.com/image/zWBDh</a> <a href=\"\nhttps://www.lookimg.com/image/zWK5r\" rel=\"nofollow\" target=\"_NEW\">\nhttps://www.lookimg.com/image/zWK5r</a> <a href=\"\nhttps://www.lookimg.com/image/zWgBj\" rel=\"nofollow\" target=\"_NEW\">\nhttps://www.lookimg.com/image/zWgBj</a> <a href=\"\nhttps://www.lookimg.com/image/zWkco\" rel=\"nofollow\" target=\"_NEW\">\nhttps://www.lookimg.com/image/zWkco</a> <a href=\"\nhttps://www.lookimg.com/image/zWo3H\" rel=\"nofollow\" target=\"_NEW\">\nhttps://www.lookimg.com/image/zWo3H</a> <a href=\"\nhttps://www.lookimg.com/image/zW87V\" rel=\"nofollow\" target=\"_NEW\">\nhttps://www.lookimg.com/image/zW87V</a> <a href=\"\nhttps://www.lookimg.com/image/zWfqK\" rel=\"nofollow\" target=\"_NEW\">\nhttps://www.lookimg.com/image/zWfqK</a> <a href=\"\nhttps://www.lookimg.com/image/zWhWs\" rel=\"nofollow\" target=\"_NEW\">\nhttps://www.lookimg.com/image/zWhWs</a> <a href=\"\nhttps://www.lookimg.com/image/zWTyc\" rel=\"nofollow\" target=\"_NEW\">\nhttps://www.lookimg.com/image/zWTyc</a> <a href=\"\nhttps://www.lookimg.com/image/zW08z\" rel=\"nofollow\" target=\"_NEW\">\nhttps://www.lookimg.com/image/zW08z</a> <a href=\"\nhttps://www.lookimg.com/image/zWqD3\" rel=\"nofollow\" target=\"_NEW\">\nhttps://www.lookimg.com/image/zWqD3</a>","last_updated":"2017-06-25T12:00:52.944Z","parsed":{"xt":"urn:btih:c3b69ebc24fc0da015e720f797ed6eae1b8b2791","dn":"Behen Hogi Teri (2017) 1CD PDVDRip x264 MP3 Mafiaking M2Tv","tr":["udp://exodus.desync.com:6969","udp://open.demonii.com:1337","udp://tracker.coppersurfer.tk:6969","udp://tracker.leechers-paradise.org:6969","udp://zer0day.ch:1337"],"infoHash":"c3b69ebc24fc0da015e720f797ed6eae1b8b2791","infoHashBuffer":{"type":"Buffer","data":[195,182,158,188,36,252,13,160,21,231,32,247,151,237,110,174,27,139,39,145]},"name":"Behen Hogi Teri (2017) 1CD PDVDRip x264 MP3 Mafiaking M2Tv","announce":["udp://exodus.desync.com:6969","udp://open.demonii.com:1337","udp://tracker.coppersurfer.tk:6969","udp://tracker.leechers-paradise.org:6969","udp://zer0day.ch:1337"],"urlList":[]}}